<mxfile host="Electron" modified="2024-07-02T11:30:19.216Z" agent="Mozilla/5.0 (Windows NT 10.0; Win64; x64) AppleWebKit/537.36 (KHTML, like Gecko) draw.io/24.0.4 Chrome/120.0.6099.109 Electron/28.1.0 Safari/537.36" etag="ppifueQaXFRj5fM80SLU" version="24.0.4" type="device">
  <diagram name="Page-1" id="qmxaoxOgT4L0kTqnZIgb">
    <mxGraphModel dx="591" dy="1442" grid="1" gridSize="10" guides="1" tooltips="1" connect="1" arrows="1" fold="1" page="1" pageScale="1" pageWidth="850" pageHeight="1100" math="0" shadow="0">
      <root>
        <mxCell id="0" />
        <mxCell id="1" parent="0" />
        <mxCell id="vEruC9I1AifXMa1CUuBE-1" value="Company" style="swimlane;fontStyle=0;childLayout=stackLayout;horizontal=1;startSize=30;horizontalStack=0;resizeParent=1;resizeParentMax=0;resizeLast=0;collapsible=1;marginBottom=0;whiteSpace=wrap;html=1;fillColor=#f8cecc;strokeColor=#b85450;" vertex="1" parent="1">
          <mxGeometry x="40" y="40" width="140" height="60" as="geometry" />
        </mxCell>
        <mxCell id="vEruC9I1AifXMa1CUuBE-2" value="id (UUID-Auto)" style="text;strokeColor=none;fillColor=none;align=left;verticalAlign=middle;spacingLeft=4;spacingRight=4;overflow=hidden;points=[[0,0.5],[1,0.5]];portConstraint=eastwest;rotatable=0;whiteSpace=wrap;html=1;" vertex="1" parent="vEruC9I1AifXMa1CUuBE-1">
          <mxGeometry y="30" width="140" height="30" as="geometry" />
        </mxCell>
        <mxCell id="vEruC9I1AifXMa1CUuBE-5" value="Users" style="swimlane;fontStyle=0;childLayout=stackLayout;horizontal=1;startSize=30;horizontalStack=0;resizeParent=1;resizeParentMax=0;resizeLast=0;collapsible=1;marginBottom=0;whiteSpace=wrap;html=1;fillColor=#d5e8d4;strokeColor=#82b366;" vertex="1" parent="1">
          <mxGeometry x="220" y="120" width="140" height="90" as="geometry" />
        </mxCell>
        <mxCell id="vEruC9I1AifXMa1CUuBE-6" value="userId (UUID-Auto)" style="text;strokeColor=none;fillColor=none;align=left;verticalAlign=middle;spacingLeft=4;spacingRight=4;overflow=hidden;points=[[0,0.5],[1,0.5]];portConstraint=eastwest;rotatable=0;whiteSpace=wrap;html=1;" vertex="1" parent="vEruC9I1AifXMa1CUuBE-5">
          <mxGeometry y="30" width="140" height="30" as="geometry" />
        </mxCell>
        <mxCell id="vEruC9I1AifXMa1CUuBE-33" value="compId (F.K)" style="text;strokeColor=none;fillColor=none;align=left;verticalAlign=middle;spacingLeft=4;spacingRight=4;overflow=hidden;points=[[0,0.5],[1,0.5]];portConstraint=eastwest;rotatable=0;whiteSpace=wrap;html=1;" vertex="1" parent="vEruC9I1AifXMa1CUuBE-5">
          <mxGeometry y="60" width="140" height="30" as="geometry" />
        </mxCell>
        <mxCell id="vEruC9I1AifXMa1CUuBE-9" value="category" style="swimlane;fontStyle=0;childLayout=stackLayout;horizontal=1;startSize=30;horizontalStack=0;resizeParent=1;resizeParentMax=0;resizeLast=0;collapsible=1;marginBottom=0;whiteSpace=wrap;html=1;fillColor=#a20025;strokeColor=#6F0000;fontColor=#ffffff;" vertex="1" parent="1">
          <mxGeometry x="650" y="500" width="140" height="120" as="geometry" />
        </mxCell>
        <mxCell id="vEruC9I1AifXMa1CUuBE-10" value="id (UUID-Auto)" style="text;strokeColor=none;fillColor=none;align=left;verticalAlign=middle;spacingLeft=4;spacingRight=4;overflow=hidden;points=[[0,0.5],[1,0.5]];portConstraint=eastwest;rotatable=0;whiteSpace=wrap;html=1;" vertex="1" parent="vEruC9I1AifXMa1CUuBE-9">
          <mxGeometry y="30" width="140" height="30" as="geometry" />
        </mxCell>
        <mxCell id="vEruC9I1AifXMa1CUuBE-49" value="userId (F.K)" style="text;strokeColor=none;fillColor=none;align=left;verticalAlign=middle;spacingLeft=4;spacingRight=4;overflow=hidden;points=[[0,0.5],[1,0.5]];portConstraint=eastwest;rotatable=0;whiteSpace=wrap;html=1;" vertex="1" parent="vEruC9I1AifXMa1CUuBE-9">
          <mxGeometry y="60" width="140" height="30" as="geometry" />
        </mxCell>
        <mxCell id="vEruC9I1AifXMa1CUuBE-32" value="compId (F.K)" style="text;strokeColor=none;fillColor=none;align=left;verticalAlign=middle;spacingLeft=4;spacingRight=4;overflow=hidden;points=[[0,0.5],[1,0.5]];portConstraint=eastwest;rotatable=0;whiteSpace=wrap;html=1;" vertex="1" parent="vEruC9I1AifXMa1CUuBE-9">
          <mxGeometry y="90" width="140" height="30" as="geometry" />
        </mxCell>
        <mxCell id="vEruC9I1AifXMa1CUuBE-13" value="Unit" style="swimlane;fontStyle=0;childLayout=stackLayout;horizontal=1;startSize=30;horizontalStack=0;resizeParent=1;resizeParentMax=0;resizeLast=0;collapsible=1;marginBottom=0;whiteSpace=wrap;html=1;fillColor=#1ba1e2;fontColor=#ffffff;strokeColor=#006EAF;" vertex="1" parent="1">
          <mxGeometry x="650" y="350" width="140" height="120" as="geometry" />
        </mxCell>
        <mxCell id="vEruC9I1AifXMa1CUuBE-14" value="id (UUID-Auto)" style="text;strokeColor=none;fillColor=none;align=left;verticalAlign=middle;spacingLeft=4;spacingRight=4;overflow=hidden;points=[[0,0.5],[1,0.5]];portConstraint=eastwest;rotatable=0;whiteSpace=wrap;html=1;" vertex="1" parent="vEruC9I1AifXMa1CUuBE-13">
          <mxGeometry y="30" width="140" height="30" as="geometry" />
        </mxCell>
        <mxCell id="vEruC9I1AifXMa1CUuBE-34" value="compId (F.K)" style="text;strokeColor=none;fillColor=none;align=left;verticalAlign=middle;spacingLeft=4;spacingRight=4;overflow=hidden;points=[[0,0.5],[1,0.5]];portConstraint=eastwest;rotatable=0;whiteSpace=wrap;html=1;" vertex="1" parent="vEruC9I1AifXMa1CUuBE-13">
          <mxGeometry y="60" width="140" height="30" as="geometry" />
        </mxCell>
        <mxCell id="vEruC9I1AifXMa1CUuBE-50" value="userId (F.K)" style="text;strokeColor=none;fillColor=none;align=left;verticalAlign=middle;spacingLeft=4;spacingRight=4;overflow=hidden;points=[[0,0.5],[1,0.5]];portConstraint=eastwest;rotatable=0;whiteSpace=wrap;html=1;" vertex="1" parent="vEruC9I1AifXMa1CUuBE-13">
          <mxGeometry y="90" width="140" height="30" as="geometry" />
        </mxCell>
        <mxCell id="vEruC9I1AifXMa1CUuBE-18" value="Role" style="swimlane;fontStyle=0;childLayout=stackLayout;horizontal=1;startSize=30;horizontalStack=0;resizeParent=1;resizeParentMax=0;resizeLast=0;collapsible=1;marginBottom=0;whiteSpace=wrap;html=1;fillColor=#e3c800;fontColor=#000000;strokeColor=#B09500;" vertex="1" parent="1">
          <mxGeometry x="650" y="-30" width="140" height="150" as="geometry" />
        </mxCell>
        <mxCell id="vEruC9I1AifXMa1CUuBE-19" value="id (UUID-Auto)" style="text;strokeColor=none;fillColor=none;align=left;verticalAlign=middle;spacingLeft=4;spacingRight=4;overflow=hidden;points=[[0,0.5],[1,0.5]];portConstraint=eastwest;rotatable=0;whiteSpace=wrap;html=1;" vertex="1" parent="vEruC9I1AifXMa1CUuBE-18">
          <mxGeometry y="30" width="140" height="30" as="geometry" />
        </mxCell>
        <mxCell id="vEruC9I1AifXMa1CUuBE-56" value="id (UUID-Auto)" style="text;strokeColor=none;fillColor=none;align=left;verticalAlign=middle;spacingLeft=4;spacingRight=4;overflow=hidden;points=[[0,0.5],[1,0.5]];portConstraint=eastwest;rotatable=0;whiteSpace=wrap;html=1;" vertex="1" parent="vEruC9I1AifXMa1CUuBE-18">
          <mxGeometry y="60" width="140" height="30" as="geometry" />
        </mxCell>
        <mxCell id="vEruC9I1AifXMa1CUuBE-30" value="compId (F.K)" style="text;strokeColor=none;fillColor=none;align=left;verticalAlign=middle;spacingLeft=4;spacingRight=4;overflow=hidden;points=[[0,0.5],[1,0.5]];portConstraint=eastwest;rotatable=0;whiteSpace=wrap;html=1;" vertex="1" parent="vEruC9I1AifXMa1CUuBE-18">
          <mxGeometry y="90" width="140" height="30" as="geometry" />
        </mxCell>
        <mxCell id="vEruC9I1AifXMa1CUuBE-48" value="userId (F.K)" style="text;strokeColor=none;fillColor=none;align=left;verticalAlign=middle;spacingLeft=4;spacingRight=4;overflow=hidden;points=[[0,0.5],[1,0.5]];portConstraint=eastwest;rotatable=0;whiteSpace=wrap;html=1;" vertex="1" parent="vEruC9I1AifXMa1CUuBE-18">
          <mxGeometry y="120" width="140" height="30" as="geometry" />
        </mxCell>
        <mxCell id="vEruC9I1AifXMa1CUuBE-22" value="Brand" style="swimlane;fontStyle=0;childLayout=stackLayout;horizontal=1;startSize=30;horizontalStack=0;resizeParent=1;resizeParentMax=0;resizeLast=0;collapsible=1;marginBottom=0;whiteSpace=wrap;html=1;fillColor=#60a917;fontColor=#ffffff;strokeColor=#2D7600;" vertex="1" parent="1">
          <mxGeometry x="650" y="180" width="140" height="120" as="geometry" />
        </mxCell>
        <mxCell id="vEruC9I1AifXMa1CUuBE-23" value="id (UUID-Auto)" style="text;strokeColor=none;fillColor=none;align=left;verticalAlign=middle;spacingLeft=4;spacingRight=4;overflow=hidden;points=[[0,0.5],[1,0.5]];portConstraint=eastwest;rotatable=0;whiteSpace=wrap;html=1;" vertex="1" parent="vEruC9I1AifXMa1CUuBE-22">
          <mxGeometry y="30" width="140" height="30" as="geometry" />
        </mxCell>
        <mxCell id="vEruC9I1AifXMa1CUuBE-35" value="compId (F.K)" style="text;strokeColor=none;fillColor=none;align=left;verticalAlign=middle;spacingLeft=4;spacingRight=4;overflow=hidden;points=[[0,0.5],[1,0.5]];portConstraint=eastwest;rotatable=0;whiteSpace=wrap;html=1;" vertex="1" parent="vEruC9I1AifXMa1CUuBE-22">
          <mxGeometry y="60" width="140" height="30" as="geometry" />
        </mxCell>
        <mxCell id="vEruC9I1AifXMa1CUuBE-57" value="userId (F.K)" style="text;strokeColor=none;fillColor=none;align=left;verticalAlign=middle;spacingLeft=4;spacingRight=4;overflow=hidden;points=[[0,0.5],[1,0.5]];portConstraint=eastwest;rotatable=0;whiteSpace=wrap;html=1;" vertex="1" parent="vEruC9I1AifXMa1CUuBE-22">
          <mxGeometry y="90" width="140" height="30" as="geometry" />
        </mxCell>
        <mxCell id="vEruC9I1AifXMa1CUuBE-26" value="Product" style="swimlane;fontStyle=0;childLayout=stackLayout;horizontal=1;startSize=30;horizontalStack=0;resizeParent=1;resizeParentMax=0;resizeLast=0;collapsible=1;marginBottom=0;whiteSpace=wrap;html=1;fillColor=#76608a;fontColor=#ffffff;strokeColor=#432D57;" vertex="1" parent="1">
          <mxGeometry x="650" y="670" width="140" height="210" as="geometry" />
        </mxCell>
        <mxCell id="vEruC9I1AifXMa1CUuBE-27" value="id (UUID-Auto)" style="text;strokeColor=none;fillColor=none;align=left;verticalAlign=middle;spacingLeft=4;spacingRight=4;overflow=hidden;points=[[0,0.5],[1,0.5]];portConstraint=eastwest;rotatable=0;whiteSpace=wrap;html=1;" vertex="1" parent="vEruC9I1AifXMa1CUuBE-26">
          <mxGeometry y="30" width="140" height="30" as="geometry" />
        </mxCell>
        <mxCell id="vEruC9I1AifXMa1CUuBE-36" value="categoryId (F.K)" style="text;strokeColor=none;fillColor=none;align=left;verticalAlign=middle;spacingLeft=4;spacingRight=4;overflow=hidden;points=[[0,0.5],[1,0.5]];portConstraint=eastwest;rotatable=0;whiteSpace=wrap;html=1;" vertex="1" parent="vEruC9I1AifXMa1CUuBE-26">
          <mxGeometry y="60" width="140" height="30" as="geometry" />
        </mxCell>
        <mxCell id="vEruC9I1AifXMa1CUuBE-37" value="unitId (F.K)" style="text;strokeColor=none;fillColor=none;align=left;verticalAlign=middle;spacingLeft=4;spacingRight=4;overflow=hidden;points=[[0,0.5],[1,0.5]];portConstraint=eastwest;rotatable=0;whiteSpace=wrap;html=1;" vertex="1" parent="vEruC9I1AifXMa1CUuBE-26">
          <mxGeometry y="90" width="140" height="30" as="geometry" />
        </mxCell>
        <mxCell id="vEruC9I1AifXMa1CUuBE-38" value="brandId (F.K)" style="text;strokeColor=none;fillColor=none;align=left;verticalAlign=middle;spacingLeft=4;spacingRight=4;overflow=hidden;points=[[0,0.5],[1,0.5]];portConstraint=eastwest;rotatable=0;whiteSpace=wrap;html=1;" vertex="1" parent="vEruC9I1AifXMa1CUuBE-26">
          <mxGeometry y="120" width="140" height="30" as="geometry" />
        </mxCell>
        <mxCell id="vEruC9I1AifXMa1CUuBE-39" value="userId (F.K)" style="text;strokeColor=none;fillColor=none;align=left;verticalAlign=middle;spacingLeft=4;spacingRight=4;overflow=hidden;points=[[0,0.5],[1,0.5]];portConstraint=eastwest;rotatable=0;whiteSpace=wrap;html=1;" vertex="1" parent="vEruC9I1AifXMa1CUuBE-26">
          <mxGeometry y="150" width="140" height="30" as="geometry" />
        </mxCell>
        <mxCell id="vEruC9I1AifXMa1CUuBE-46" value="compId (F.K)" style="text;strokeColor=none;fillColor=none;align=left;verticalAlign=middle;spacingLeft=4;spacingRight=4;overflow=hidden;points=[[0,0.5],[1,0.5]];portConstraint=eastwest;rotatable=0;whiteSpace=wrap;html=1;" vertex="1" parent="vEruC9I1AifXMa1CUuBE-26">
          <mxGeometry y="180" width="140" height="30" as="geometry" />
        </mxCell>
        <mxCell id="vEruC9I1AifXMa1CUuBE-31" style="edgeStyle=orthogonalEdgeStyle;rounded=0;orthogonalLoop=1;jettySize=auto;html=1;entryX=0;entryY=0.5;entryDx=0;entryDy=0;" edge="1" parent="1" source="vEruC9I1AifXMa1CUuBE-2" target="vEruC9I1AifXMa1CUuBE-30">
          <mxGeometry relative="1" as="geometry" />
        </mxCell>
        <mxCell id="vEruC9I1AifXMa1CUuBE-51" style="edgeStyle=orthogonalEdgeStyle;rounded=0;orthogonalLoop=1;jettySize=auto;html=1;entryX=0;entryY=0.5;entryDx=0;entryDy=0;" edge="1" parent="1" source="vEruC9I1AifXMa1CUuBE-6" target="vEruC9I1AifXMa1CUuBE-48">
          <mxGeometry relative="1" as="geometry">
            <Array as="points">
              <mxPoint x="480" y="165" />
              <mxPoint x="480" y="105" />
            </Array>
          </mxGeometry>
        </mxCell>
        <mxCell id="vEruC9I1AifXMa1CUuBE-52" style="edgeStyle=orthogonalEdgeStyle;rounded=0;orthogonalLoop=1;jettySize=auto;html=1;entryX=0;entryY=0.5;entryDx=0;entryDy=0;" edge="1" parent="1" source="vEruC9I1AifXMa1CUuBE-2" target="vEruC9I1AifXMa1CUuBE-33">
          <mxGeometry relative="1" as="geometry" />
        </mxCell>
        <mxCell id="vEruC9I1AifXMa1CUuBE-53" style="edgeStyle=orthogonalEdgeStyle;rounded=0;orthogonalLoop=1;jettySize=auto;html=1;entryX=0;entryY=0.5;entryDx=0;entryDy=0;" edge="1" parent="1" source="vEruC9I1AifXMa1CUuBE-2" target="vEruC9I1AifXMa1CUuBE-35">
          <mxGeometry relative="1" as="geometry" />
        </mxCell>
        <mxCell id="vEruC9I1AifXMa1CUuBE-54" style="edgeStyle=orthogonalEdgeStyle;rounded=0;orthogonalLoop=1;jettySize=auto;html=1;entryX=0;entryY=0.5;entryDx=0;entryDy=0;" edge="1" parent="1" source="vEruC9I1AifXMa1CUuBE-2" target="vEruC9I1AifXMa1CUuBE-34">
          <mxGeometry relative="1" as="geometry" />
        </mxCell>
        <mxCell id="vEruC9I1AifXMa1CUuBE-55" style="edgeStyle=orthogonalEdgeStyle;rounded=0;orthogonalLoop=1;jettySize=auto;html=1;entryX=0;entryY=0.5;entryDx=0;entryDy=0;" edge="1" parent="1" source="vEruC9I1AifXMa1CUuBE-2" target="vEruC9I1AifXMa1CUuBE-32">
          <mxGeometry relative="1" as="geometry" />
        </mxCell>
        <mxCell id="vEruC9I1AifXMa1CUuBE-58" style="edgeStyle=orthogonalEdgeStyle;rounded=0;orthogonalLoop=1;jettySize=auto;html=1;entryX=0;entryY=0.5;entryDx=0;entryDy=0;" edge="1" parent="1" source="vEruC9I1AifXMa1CUuBE-2" target="vEruC9I1AifXMa1CUuBE-46">
          <mxGeometry relative="1" as="geometry" />
        </mxCell>
        <mxCell id="vEruC9I1AifXMa1CUuBE-64" style="edgeStyle=orthogonalEdgeStyle;rounded=0;orthogonalLoop=1;jettySize=auto;html=1;entryX=0;entryY=0.5;entryDx=0;entryDy=0;" edge="1" parent="1" source="vEruC9I1AifXMa1CUuBE-23" target="vEruC9I1AifXMa1CUuBE-38">
          <mxGeometry relative="1" as="geometry" />
        </mxCell>
        <mxCell id="vEruC9I1AifXMa1CUuBE-71" style="edgeStyle=orthogonalEdgeStyle;rounded=0;orthogonalLoop=1;jettySize=auto;html=1;entryX=0;entryY=0.5;entryDx=0;entryDy=0;" edge="1" parent="1" source="vEruC9I1AifXMa1CUuBE-14" target="vEruC9I1AifXMa1CUuBE-37">
          <mxGeometry relative="1" as="geometry" />
        </mxCell>
        <mxCell id="vEruC9I1AifXMa1CUuBE-72" style="edgeStyle=orthogonalEdgeStyle;rounded=0;orthogonalLoop=1;jettySize=auto;html=1;entryX=0;entryY=0.5;entryDx=0;entryDy=0;" edge="1" parent="1" source="vEruC9I1AifXMa1CUuBE-10" target="vEruC9I1AifXMa1CUuBE-36">
          <mxGeometry relative="1" as="geometry">
            <Array as="points">
              <mxPoint x="550" y="545" />
              <mxPoint x="550" y="745" />
            </Array>
          </mxGeometry>
        </mxCell>
        <mxCell id="vEruC9I1AifXMa1CUuBE-73" value="Inventory" style="swimlane;fontStyle=0;childLayout=stackLayout;horizontal=1;startSize=30;horizontalStack=0;resizeParent=1;resizeParentMax=0;resizeLast=0;collapsible=1;marginBottom=0;whiteSpace=wrap;html=1;fillColor=#fa6800;fontColor=#000000;strokeColor=#C73500;" vertex="1" parent="1">
          <mxGeometry x="650" y="920" width="140" height="120" as="geometry" />
        </mxCell>
        <mxCell id="vEruC9I1AifXMa1CUuBE-74" value="id (UUID-Auto)" style="text;strokeColor=none;fillColor=none;align=left;verticalAlign=middle;spacingLeft=4;spacingRight=4;overflow=hidden;points=[[0,0.5],[1,0.5]];portConstraint=eastwest;rotatable=0;whiteSpace=wrap;html=1;" vertex="1" parent="vEruC9I1AifXMa1CUuBE-73">
          <mxGeometry y="30" width="140" height="30" as="geometry" />
        </mxCell>
        <mxCell id="vEruC9I1AifXMa1CUuBE-75" value="productId (F.K)" style="text;strokeColor=none;fillColor=none;align=left;verticalAlign=middle;spacingLeft=4;spacingRight=4;overflow=hidden;points=[[0,0.5],[1,0.5]];portConstraint=eastwest;rotatable=0;whiteSpace=wrap;html=1;" vertex="1" parent="vEruC9I1AifXMa1CUuBE-73">
          <mxGeometry y="60" width="140" height="30" as="geometry" />
        </mxCell>
        <mxCell id="vEruC9I1AifXMa1CUuBE-78" value="userId (F.K)" style="text;strokeColor=none;fillColor=none;align=left;verticalAlign=middle;spacingLeft=4;spacingRight=4;overflow=hidden;points=[[0,0.5],[1,0.5]];portConstraint=eastwest;rotatable=0;whiteSpace=wrap;html=1;" vertex="1" parent="vEruC9I1AifXMa1CUuBE-73">
          <mxGeometry y="90" width="140" height="30" as="geometry" />
        </mxCell>
        <mxCell id="vEruC9I1AifXMa1CUuBE-80" style="edgeStyle=orthogonalEdgeStyle;rounded=0;orthogonalLoop=1;jettySize=auto;html=1;entryX=0;entryY=0.5;entryDx=0;entryDy=0;" edge="1" parent="1" source="vEruC9I1AifXMa1CUuBE-6" target="vEruC9I1AifXMa1CUuBE-78">
          <mxGeometry relative="1" as="geometry">
            <Array as="points">
              <mxPoint x="480" y="165" />
              <mxPoint x="480" y="1025" />
            </Array>
          </mxGeometry>
        </mxCell>
        <mxCell id="vEruC9I1AifXMa1CUuBE-81" style="edgeStyle=orthogonalEdgeStyle;rounded=0;orthogonalLoop=1;jettySize=auto;html=1;entryX=0;entryY=0.5;entryDx=0;entryDy=0;" edge="1" parent="1" source="vEruC9I1AifXMa1CUuBE-27" target="vEruC9I1AifXMa1CUuBE-75">
          <mxGeometry relative="1" as="geometry">
            <Array as="points">
              <mxPoint x="570" y="715" />
              <mxPoint x="570" y="995" />
            </Array>
          </mxGeometry>
        </mxCell>
        <mxCell id="vEruC9I1AifXMa1CUuBE-82" style="edgeStyle=orthogonalEdgeStyle;rounded=0;orthogonalLoop=1;jettySize=auto;html=1;entryX=0;entryY=0.5;entryDx=0;entryDy=0;" edge="1" parent="1" source="vEruC9I1AifXMa1CUuBE-6" target="vEruC9I1AifXMa1CUuBE-57">
          <mxGeometry relative="1" as="geometry">
            <Array as="points">
              <mxPoint x="480" y="165" />
              <mxPoint x="480" y="285" />
            </Array>
          </mxGeometry>
        </mxCell>
        <mxCell id="vEruC9I1AifXMa1CUuBE-83" style="edgeStyle=orthogonalEdgeStyle;rounded=0;orthogonalLoop=1;jettySize=auto;html=1;" edge="1" parent="1" source="vEruC9I1AifXMa1CUuBE-6" target="vEruC9I1AifXMa1CUuBE-50">
          <mxGeometry relative="1" as="geometry">
            <Array as="points">
              <mxPoint x="480" y="165" />
              <mxPoint x="480" y="455" />
            </Array>
          </mxGeometry>
        </mxCell>
        <mxCell id="vEruC9I1AifXMa1CUuBE-84" style="edgeStyle=orthogonalEdgeStyle;rounded=0;orthogonalLoop=1;jettySize=auto;html=1;entryX=0;entryY=0.5;entryDx=0;entryDy=0;" edge="1" parent="1" source="vEruC9I1AifXMa1CUuBE-6" target="vEruC9I1AifXMa1CUuBE-49">
          <mxGeometry relative="1" as="geometry">
            <Array as="points">
              <mxPoint x="480" y="165" />
              <mxPoint x="480" y="575" />
            </Array>
          </mxGeometry>
        </mxCell>
        <mxCell id="vEruC9I1AifXMa1CUuBE-85" style="edgeStyle=orthogonalEdgeStyle;rounded=0;orthogonalLoop=1;jettySize=auto;html=1;entryX=0;entryY=0.5;entryDx=0;entryDy=0;" edge="1" parent="1" source="vEruC9I1AifXMa1CUuBE-6" target="vEruC9I1AifXMa1CUuBE-39">
          <mxGeometry relative="1" as="geometry">
            <Array as="points">
              <mxPoint x="480" y="165" />
              <mxPoint x="480" y="835" />
            </Array>
          </mxGeometry>
        </mxCell>
      </root>
    </mxGraphModel>
  </diagram>
</mxfile>
